<svg width="15" height="14" viewBox="0 0 15 14" fill="none" xmlns="http://www.w3.org/2000/svg">
<path d="M2.7966 0.197583C2.56227 0.20467 2.35642 0.328342 2.18411 0.500627L1.89664 0.787639L5.01218 3.95994L5.46445 3.50765C5.73702 3.23509 5.73701 2.78506 5.46445 2.5125L3.45212 0.500627C3.25721 0.305718 3.03092 0.190391 2.7966 0.197583ZM8.19729 1.37907C10.9183 1.37907 13.1196 3.58035 13.1196 6.3014C13.1125 6.62092 13.5955 6.62092 13.5884 6.3014C13.5884 3.32702 11.1717 0.912155 8.18608 0.912155C7.88734 0.947942 7.90767 1.37106 8.19731 1.37907H8.19729ZM1.5643 1.11907L1.23425 1.44866C0.694191 1.98871 0.697755 2.69534 0.697755 3.02151C0.697755 4.37118 1.23733 6.70455 4.51596 9.98318C7.7946 13.2618 10.1284 13.8018 11.4781 13.8018C11.8043 13.8019 12.5109 13.8054 13.051 13.2654L13.3494 12.9669L10.2339 9.79459L9.90704 10.1219C9.71335 10.3156 9.57042 10.3387 9.43143 10.3224C9.29245 10.3061 9.14877 10.2257 9.0437 10.1443C8.47077 9.70076 7.54315 9.06585 6.48846 8.01115C5.43377 6.95647 4.79886 6.02838 4.35529 5.45545C4.27397 5.35038 4.19356 5.20853 4.17722 5.06955C4.16083 4.93057 4.18599 4.78581 4.37955 4.59212L4.6803 4.29137L1.5643 1.11907ZM8.1973 2.31702C7.89163 2.32411 7.89163 2.77902 8.1973 2.78578C10.1417 2.78578 11.7129 4.357 11.7129 6.3014C11.7197 6.60704 12.1749 6.60704 12.1817 6.3014C12.1817 4.10367 10.395 2.31702 8.1973 2.31702ZM8.1973 3.72327C7.88449 3.72327 7.88449 4.19248 8.1973 4.19248C9.36505 4.19248 10.3062 5.13365 10.3062 6.3014C10.3062 6.61421 10.7754 6.61421 10.7754 6.3014C10.7754 4.88032 9.61838 3.72327 8.1973 3.72327ZM8.19729 5.59919C8.5884 5.59919 8.90179 5.9103 8.90179 6.3014C8.89471 6.62092 9.37764 6.62092 9.37054 6.3014C9.37054 5.65697 8.84173 5.12997 8.18608 5.12997C7.8623 5.14512 7.88473 5.61435 8.19731 5.59919H8.19729ZM11.4891 8.83053C11.3085 8.83053 11.1282 8.89885 10.9919 9.03517L10.5653 9.46227L13.6813 12.635L13.999 12.3173C14.1713 12.145 14.2944 11.9373 14.3016 11.703C14.3087 11.4687 14.1939 11.2424 13.999 11.0475L11.9867 9.03517C11.8504 8.89889 11.6696 8.83053 11.4891 8.83053Z" fill="#F5F5F5"/>
</svg>
